<?xml version="1.0" encoding="UTF-8" standalone="no"?>
<!-- Created with Inkscape (http://www.inkscape.org/) -->

<svg
   xmlns:dc="http://purl.org/dc/elements/1.1/"
   xmlns:cc="http://creativecommons.org/ns#"
   xmlns:rdf="http://www.w3.org/1999/02/22-rdf-syntax-ns#"
   xmlns:svg="http://www.w3.org/2000/svg"
   xmlns="http://www.w3.org/2000/svg"
   xmlns:sodipodi="http://sodipodi.sourceforge.net/DTD/sodipodi-0.dtd"
   xmlns:inkscape="http://www.inkscape.org/namespaces/inkscape"
   width="19mm"
   height="25mm"
   viewBox="0 0 67.322835 88.582656"
   id="svg4266"
   version="1.1"
   inkscape:version="0.91 r13725"
   sodipodi:docname="master-logo-gb.svg">
  <defs
     id="defs4268" />
  <sodipodi:namedview
     id="base"
     pagecolor="#ffffff"
     bordercolor="#666666"
     borderopacity="1.0"
     inkscape:pageopacity="0.0"
     inkscape:pageshadow="2"
     inkscape:zoom="3.959798"
     inkscape:cx="-10.213502"
     inkscape:cy="38.499356"
     inkscape:document-units="px"
     inkscape:current-layer="layer1"
     showgrid="false"
     height="36mm"
     inkscape:window-width="1366"
     inkscape:window-height="744"
     inkscape:window-x="0"
     inkscape:window-y="24"
     inkscape:window-maximized="1" />
  <metadata
     id="metadata4271">
    <rdf:RDF>
      <cc:Work
         rdf:about="">
        <dc:format>image/svg+xml</dc:format>
        <dc:type
           rdf:resource="http://purl.org/dc/dcmitype/StillImage" />
        <dc:title></dc:title>
      </cc:Work>
    </rdf:RDF>
  </metadata>
  <g
     inkscape:label="Layer 1"
     inkscape:groupmode="layer"
     id="layer1"
     transform="translate(0,-963.77956)">
    <g
       id="g4850">
      <path
         inkscape:transform-center-y="-379.41867"
         inkscape:transform-center-x="3.8537619"
         inkscape:export-ydpi="72"
         inkscape:export-xdpi="72"
         sodipodi:nodetypes="cccccccccccccccccccc"
         inkscape:connector-curvature="0"
         style="fill:#008000;fill-opacity:1;fill-rule:evenodd;stroke:none"
         d="m 33.961139,1032.6699 28.098988,-15.825 0,-27.58139 -17.609341,-10.21516 0,10.59094 10.819341,6.07774 -0.01373,9.84057 -13.203143,-7.39977 0,-27.12078 -8.079066,-4.54065 0,36.3431 0.01818,14.988 -7.825724,5.4535 0,-36.49706 -14.591775,9.23685 0.0037,9.34921 12.150893,-7.50237 0,8.09067 -17.7162931,10.8854 z"
         id="path4640" />
      <path
         inkscape:transform-center-y="-337.9745"
         inkscape:transform-center-x="-17.143161"
         inkscape:export-ydpi="72"
         inkscape:export-xdpi="72"
         inkscape:connector-curvature="0"
         id="path4278"
         d="m 54.576313,1036.5839 c -0.08983,0 -0.169229,0.01 -0.22716,0.01 -1.004051,0.076 -1.81744,0.4195 -2.43063,1.0282 -0.701613,0.6964 -1.0859,1.6305 -1.179743,2.8683 -0.02898,0.3827 -0.01487,0.9851 0.03191,1.3797 0.189431,1.6059 0.966504,2.7564 2.221629,3.2877 0.385177,0.1631 0.822191,0.2629 1.350862,0.309 0.116052,0.01 0.715056,0.01 0.842023,0 0.831184,-0.074 1.519201,-0.3342 2.095963,-0.7936 0.231357,-0.1843 0.53602,-0.5194 0.713271,-0.7844 0.424688,-0.635 0.64736,-1.3035 0.743576,-2.2368 0.02079,-0.2034 0.02079,-1.0305 0,-1.2418 -0.09767,-0.9866 -0.364413,-1.7403 -0.838978,-2.3746 -0.6107,-0.8164 -1.439951,-1.2789 -2.544228,-1.419 -0.146913,-0.018 -0.508915,-0.029 -0.77841,-0.026 z m -11.276376,0.1181 0,4.3373 0,4.3387 1.741613,-0.01 c 1.860776,-0.01 1.855094,-0.01 2.220141,-0.068 0.954694,-0.164 1.666113,-0.6462 2.032312,-1.3766 0.157268,-0.3136 0.240121,-0.6714 0.254417,-1.1085 0.02898,-0.8776 -0.314243,-1.5612 -0.987373,-1.9687 -0.05444,-0.033 -0.09975,-0.062 -0.09997,-0.067 0,0 0.02041,-0.024 0.04546,-0.043 0.29802,-0.2228 0.539401,-0.561 0.663328,-0.9314 0.0837,-0.2501 0.115043,-0.4593 0.115081,-0.7693 0,-0.8567 -0.332109,-1.4859 -0.98741,-1.8719 -0.338199,-0.1992 -0.808564,-0.3406 -1.384175,-0.4134 -0.37968,-0.048 -0.601939,-0.053 -2.132316,-0.053 l -1.481101,0 z m 15.904427,0 0.02264,0.033 c 0.221033,0.3367 2.632911,4.0551 2.650213,4.0859 l 0.02415,0.044 -1.431115,2.2504 c -0.787468,1.2377 -1.432636,2.252 -1.432636,2.2549 0,0 0.43208,0 0.960154,0 l 0.960116,0 0.957109,-1.5401 c 0.526403,-0.8471 0.96283,-1.5411 0.969251,-1.5416 0.0063,0 0.435163,0.6923 0.952578,1.5386 l 0.940436,1.5386 0.994949,0 c 0.547389,0 0.994986,0 0.994986,0 0,0 -0.64557,-1.025 -1.43568,-2.2716 -0.790067,-1.2465 -1.434752,-2.271 -1.432636,-2.2761 0.0038,-0.01 0.606841,-0.9312 1.344811,-2.0581 0.73797,-1.1269 1.341765,-2.0529 1.341765,-2.0566 0,0 -0.434793,-0.01 -0.966172,-0.01 l -0.966244,0 -0.866201,1.3751 c -0.476455,0.7557 -0.87069,1.3723 -0.876856,1.3705 -0.0063,-0.01 -0.39791,-0.6208 -0.870804,-1.3751 l -0.860183,-1.3705 -0.98741,0 -0.987377,0 z m -4.431191,1.5083 c 0.293488,0 0.351713,0 0.489155,0.029 0.60023,0.1072 1.008136,0.3736 1.300876,0.8511 0.213983,0.349 0.343919,0.7982 0.398323,1.3721 0.02638,0.2784 0.02638,0.8492 0,1.1283 -0.07557,0.7983 -0.291334,1.3575 -0.672387,1.7385 -0.291035,0.2909 -0.664402,0.4585 -1.152515,0.5194 -0.111075,0.014 -0.492536,0.026 -0.581516,0.018 -0.49677,-0.044 -0.800988,-0.137 -1.102497,-0.3377 -0.528671,-0.352 -0.832666,-0.9788 -0.928328,-1.9142 -0.02524,-0.247 -0.02898,-0.8715 -0.006,-1.1207 0.07338,-0.8024 0.302774,-1.3733 0.708744,-1.7658 0.230357,-0.2227 0.499889,-0.3668 0.843548,-0.4498 0.248702,-0.06 0.339496,-0.069 0.702649,-0.068 z m -9.752828,0.091 0.604241,0 c 0.332218,0 0.674314,0.01 0.760249,0.012 0.429628,0.034 0.753156,0.1247 0.931373,0.262 0.169192,0.1305 0.241348,0.3728 0.212008,0.7088 -0.04375,0.5003 -0.247101,0.6691 -0.908643,0.7572 -0.106729,0.014 -0.310123,0.02 -0.869284,0.024 l -0.729944,0.01 0,-0.8845 0,-0.8859 z m 0,3.3408 0.736,0.01 c 0.418334,0.01 0.788287,0.012 0.857171,0.02 0.715317,0.08 1.05656,0.3058 1.13124,0.7466 0.02377,0.1394 0.02709,0.257 0.01373,0.4044 -0.02746,0.299 -0.09206,0.4599 -0.246807,0.6133 -0.215053,0.2132 -0.528633,0.3162 -1.052549,0.3453 -0.115157,0.01 -0.485665,0.012 -0.823825,0.012 l -0.614862,0 0,-1.0737 0,-1.0737 z"
         style="fill:#008000;fill-opacity:1;stroke:none" />
      <g
         style="fill:#ffffff"
         id="g4840">
        <g
           style="fill:#ffffff;fill-opacity:1"
           id="g4266"
           transform="matrix(0.53092677,0,0,0.53092677,-364.60397,557.28387)"
           inkscape:export-xdpi="72"
           inkscape:export-ydpi="72"
           inkscape:transform-center-x="17.378065"
           inkscape:transform-center-y="-337.97063">
          <path
             d="m 695.71722,911.08713 6.02427,0 0,7.4549 c -1.57966,0.6706 -3.35676,1.00591 -5.33131,1.00591 -2.57812,0 -4.5564,-0.72649 -5.93486,-2.17947 -1.37102,-1.46043 -2.05653,-3.5244 -2.05653,-6.19193 0,-1.6616 0.33903,-3.1332 1.01709,-4.41482 0.6855,-1.28904 1.6616,-2.28377 2.92831,-2.98419 1.27414,-0.7004 2.73457,-1.0506 4.38129,-1.05062 1.78082,2e-5 3.37909,0.32787 4.79483,0.98356 l -0.45825,1.02826 c -1.41573,-0.65569 -2.88361,-0.98354 -4.40364,-0.98356 -2.1534,2e-5 -3.86344,0.6669 -5.13014,2.00064 -1.25925,1.32633 -1.88887,3.11833 -1.88887,5.37603 0,2.45889 0.59982,4.3105 1.79946,5.55485 1.19963,1.23689 2.96183,1.85534 5.28661,1.85534 1.50512,0 2.783,-0.21236 3.83363,-0.63708 l 0,-5.74485 -4.86189,0 0,-1.07297"
             style="font-style:normal;font-variant:normal;font-weight:300;font-stretch:normal;font-size:22.89000511px;line-height:125%;font-family:'Open Sans';-inkscape-font-specification:'Open Sans Light';text-align:start;letter-spacing:1.42631257px;word-spacing:0px;writing-mode:lr-tb;text-anchor:start;fill:#ffffff;fill-opacity:1;stroke:none"
             id="path4268"
             inkscape:connector-curvature="0" />
          <path
             d="m 708.39853,912.20481 0,7.11959 -1.14003,0 0,-16.34042 3.88951,0 c 2.02671,10e-6 3.5244,0.3763 4.49306,1.12885 0.96864,0.74513 1.45296,1.87026 1.45298,3.37538 -2e-5,1.09534 -0.29061,2.01928 -0.87179,2.77184 -0.57375,0.75258 -1.44926,1.29279 -2.62654,1.62063 l 4.43717,7.44372 -1.36356,0 -4.21364,-7.11959 -4.05716,0 m 0,-0.98356 3.11831,0 c 1.37846,10e-6 2.4477,-0.30549 3.20773,-0.91649 0.76001,-0.61844 1.14002,-1.52748 1.14003,-2.72713 -10e-6,-1.24434 -0.37257,-2.14965 -1.11767,-2.71596 -0.74513,-0.56627 -1.95967,-0.84941 -3.64363,-0.84943 l -2.70477,0 0,7.20901"
             style="font-style:normal;font-variant:normal;font-weight:300;font-stretch:normal;font-size:22.89000511px;line-height:125%;font-family:'Open Sans';-inkscape-font-specification:'Open Sans Light';text-align:start;letter-spacing:1.42631257px;word-spacing:0px;writing-mode:lr-tb;text-anchor:start;fill:#ffffff;fill-opacity:1;stroke:none"
             id="path4270"
             inkscape:connector-curvature="0" />
          <path
             d="m 731.20598,919.3244 -8.93023,0 0,-16.34042 8.93023,0 0,1.05061 -7.7902,0 0,6.18075 7.35431,0 0,1.05062 -7.35431,0 0,7.00783 7.7902,0 0,1.05061"
             style="font-style:normal;font-variant:normal;font-weight:300;font-stretch:normal;font-size:22.89000511px;line-height:125%;font-family:'Open Sans';-inkscape-font-specification:'Open Sans Light';text-align:start;letter-spacing:1.42631257px;word-spacing:0px;writing-mode:lr-tb;text-anchor:start;fill:#ffffff;fill-opacity:1;stroke:none"
             id="path4272"
             inkscape:connector-curvature="0" />
          <path
             d="m 745.28439,919.3244 -8.93024,0 0,-16.34042 8.93024,0 0,1.05061 -7.79021,0 0,6.18075 7.35431,0 0,1.05062 -7.35431,0 0,7.00783 7.79021,0 0,1.05061"
             style="font-style:normal;font-variant:normal;font-weight:300;font-stretch:normal;font-size:22.89000511px;line-height:125%;font-family:'Open Sans';-inkscape-font-specification:'Open Sans Light';text-align:start;letter-spacing:1.42631257px;word-spacing:0px;writing-mode:lr-tb;text-anchor:start;fill:#ffffff;fill-opacity:1;stroke:none"
             id="path4274"
             inkscape:connector-curvature="0" />
          <path
             d="m 762.31346,919.3244 -1.15121,0 -9.67907,-14.50743 -0.0894,0 c 0.0894,1.72868 0.13412,3.03264 0.13412,3.91186 l 0,10.59557 -1.09532,0 0,-16.34042 1.14003,0 9.6679,14.48508 0.0671,0 c -0.0671,-1.34121 -0.1006,-2.61536 -0.10059,-3.82245 l 0,-10.66263 1.1065,0 0,16.34042"
             style="font-style:normal;font-variant:normal;font-weight:300;font-stretch:normal;font-size:22.89000511px;line-height:125%;font-family:'Open Sans';-inkscape-font-specification:'Open Sans Light';text-align:start;letter-spacing:1.42631257px;word-spacing:0px;writing-mode:lr-tb;text-anchor:start;fill:#ffffff;fill-opacity:1;stroke:none"
             id="path4276"
             inkscape:connector-curvature="0" />
        </g>
        <text
           sodipodi:linespacing="125%"
           id="text4280"
           y="1050.0704"
           x="13.420796"
           style="font-style:normal;font-variant:normal;font-weight:normal;font-stretch:normal;font-size:2.76262522px;line-height:125%;font-family:'Open Sans';-inkscape-font-specification:'Open Sans';text-align:start;letter-spacing:3.37855411px;word-spacing:0px;writing-mode:lr-tb;text-anchor:start;fill:#ffffff;fill-opacity:1;stroke:none"
           xml:space="preserve"
           inkscape:export-xdpi="72"
           inkscape:export-ydpi="72"
           inkscape:transform-center-x="3.4815993"
           inkscape:transform-center-y="-329.91943"><tspan
             y="1050.0704"
             x="13.420796"
             id="tspan4282"
             sodipodi:role="line">INDONESIA</tspan></text>
      </g>
    </g>
  </g>
</svg>
